<?xml version="1.0" encoding="UTF-8" standalone="no"?>
<svg
   version="1.1"
   width="45"
   height="45"
   id="svg34"
   sodipodi:docname="bQ.svg"
   inkscape:export-filename="/home/shell/Projects/chess/static/img/chesspieces/bQ.png"
   inkscape:export-xdpi="273.07001"
   inkscape:export-ydpi="273.07001"
   inkscape:version="1.1.2 (0a00cf5339, 2022-02-04)"
   xmlns:inkscape="http://www.inkscape.org/namespaces/inkscape"
   xmlns:sodipodi="http://sodipodi.sourceforge.net/DTD/sodipodi-0.dtd"
   xmlns="http://www.w3.org/2000/svg"
   xmlns:svg="http://www.w3.org/2000/svg">
  <defs
     id="defs38" />
  <sodipodi:namedview
     id="namedview36"
     pagecolor="#ffffff"
     bordercolor="#666666"
     borderopacity="1.0"
     inkscape:pageshadow="2"
     inkscape:pageopacity="0.0"
     inkscape:pagecheckerboard="0"
     showgrid="false"
     inkscape:zoom="18.755556"
     inkscape:cx="22.473341"
     inkscape:cy="22.5"
     inkscape:window-width="1920"
     inkscape:window-height="1029"
     inkscape:window-x="0"
     inkscape:window-y="27"
     inkscape:window-maximized="1"
     inkscape:current-layer="svg34" />
  <g
     style="fill:#000000;stroke:#000000;stroke-width:1.5; stroke-linecap:round;stroke-linejoin:round"
     id="g32">
    <path
       d="M 9,26 C 17.5,24.5 30,24.5 36,26 L 38.5,13.5 L 31,25 L 30.7,10.9 L 25.5,24.5 L 22.5,10 L 19.5,24.5 L 14.3,10.9 L 14,25 L 6.5,13.5 L 9,26 z"
       style="stroke-linecap:butt;fill:#000000"
       id="path2" />
    <path
       d="m 9,26 c 0,2 1.5,2 2.5,4 1,1.5 1,1 0.5,3.5 -1.5,1 -1,2.5 -1,2.5 -1.5,1.5 0,2.5 0,2.5 6.5,1 16.5,1 23,0 0,0 1.5,-1 0,-2.5 0,0 0.5,-1.5 -1,-2.5 -0.5,-2.5 -0.5,-2 0.5,-3.5 1,-2 2.5,-2 2.5,-4 -8.5,-1.5 -18.5,-1.5 -27,0 z"
       id="path4" />
    <path
       d="M 11.5,30 C 15,29 30,29 33.5,30"
       id="path6" />
    <path
       d="m 12,33.5 c 6,-1 15,-1 21,0"
       id="path8" />
    <circle
       cx="6"
       cy="12"
       r="2"
       id="circle10" />
    <circle
       cx="14"
       cy="9"
       r="2"
       id="circle12" />
    <circle
       cx="22.5"
       cy="8"
       r="2"
       id="circle14" />
    <circle
       cx="31"
       cy="9"
       r="2"
       id="circle16" />
    <circle
       cx="39"
       cy="12"
       r="2"
       id="circle18" />
    <path
       d="M 11,38.5 A 35,35 1 0 0 34,38.5"
       style="fill:none; stroke:#000000;stroke-linecap:butt;"
       id="path20" />
    <g
       style="fill:none; stroke:#ffffff;"
       id="g30">
      <path
         d="M 11,29 A 35,35 1 0 1 34,29"
         id="path22" />
      <path
         d="M 12.5,31.5 L 32.5,31.5"
         id="path24" />
      <path
         d="M 11.5,34.5 A 35,35 1 0 0 33.5,34.5"
         id="path26" />
      <path
         d="M 10.5,37.5 A 35,35 1 0 0 34.5,37.5"
         id="path28" />
    </g>
  </g>
</svg>
