<?xml version="1.0" encoding="UTF-8" standalone="no"?>
<svg
   version="1.1"
   width="45"
   height="45"
   id="svg18"
   sodipodi:docname="wR.svg"
   inkscape:export-filename="/home/shell/Projects/chess/static/img/chesspieces/wR.png"
   inkscape:export-xdpi="273.07001"
   inkscape:export-ydpi="273.07001"
   inkscape:version="1.1.2 (0a00cf5339, 2022-02-04)"
   xmlns:inkscape="http://www.inkscape.org/namespaces/inkscape"
   xmlns:sodipodi="http://sodipodi.sourceforge.net/DTD/sodipodi-0.dtd"
   xmlns="http://www.w3.org/2000/svg"
   xmlns:svg="http://www.w3.org/2000/svg">
  <defs
     id="defs22" />
  <sodipodi:namedview
     id="namedview20"
     pagecolor="#ffffff"
     bordercolor="#666666"
     borderopacity="1.0"
     inkscape:pageshadow="2"
     inkscape:pageopacity="0.0"
     inkscape:pagecheckerboard="0"
     showgrid="false"
     inkscape:zoom="18.755556"
     inkscape:cx="22.473341"
     inkscape:cy="22.5"
     inkscape:window-width="1920"
     inkscape:window-height="1029"
     inkscape:window-x="0"
     inkscape:window-y="27"
     inkscape:window-maximized="1"
     inkscape:current-layer="svg18" />
  <g
     style="opacity:1; fill:#ffffff; fill-opacity:1; fill-rule:evenodd; stroke:#000000; stroke-width:1.5; stroke-linecap:round;stroke-linejoin:round;stroke-miterlimit:4; stroke-dasharray:none; stroke-opacity:1;"
     transform="translate(0,0.3)"
     id="g16">
    <path
       d="M 9,39 L 36,39 L 36,36 L 9,36 L 9,39 z "
       style="stroke-linecap:butt;"
       id="path2" />
    <path
       d="M 12,36 L 12,32 L 33,32 L 33,36 L 12,36 z "
       style="stroke-linecap:butt;"
       id="path4" />
    <path
       d="M 11,14 L 11,9 L 15,9 L 15,11 L 20,11 L 20,9 L 25,9 L 25,11 L 30,11 L 30,9 L 34,9 L 34,14"
       style="stroke-linecap:butt;"
       id="path6" />
    <path
       d="M 34,14 L 31,17 L 14,17 L 11,14"
       id="path8" />
    <path
       d="M 31,17 L 31,29.5 L 14,29.5 L 14,17"
       style="stroke-linecap:butt; stroke-linejoin:miter;"
       id="path10" />
    <path
       d="M 31,29.5 L 32.5,32 L 12.5,32 L 14,29.5"
       id="path12" />
    <path
       d="M 11,14 L 34,14"
       style="fill:none; stroke:#000000; stroke-linejoin:miter;"
       id="path14" />
  </g>
</svg>
